<svg width="144" height="30" viewBox="0 0 144 30" fill="none" xmlns="http://www.w3.org/2000/svg">
<path d="M34.386 0.195206H24.211C23.8833 0.19515 23.5607 0.276086 23.2719 0.430815C22.983 0.585544 22.7369 0.809266 22.5554 1.08208L20.1454 4.68262C19.9278 5.00965 19.8118 5.39365 19.8118 5.78641C19.8118 6.17916 19.9278 6.56316 20.1454 6.89019L20.2345 7.02514C20.4166 7.29805 20.6631 7.5218 20.9524 7.67655C21.2416 7.83131 21.5646 7.91228 21.8926 7.91228C22.2206 7.91228 22.5436 7.83131 22.8329 7.67655C23.1221 7.5218 23.3687 7.29805 23.5507 7.02514L25.416 4.25124C25.4845 4.14983 25.5767 4.06673 25.6847 4.00917C25.7926 3.95162 25.9131 3.92137 26.0354 3.92106H29.2359C29.3705 3.92123 29.5025 3.95788 29.618 4.02711C29.7334 4.09635 29.828 4.19557 29.8915 4.31425C29.955 4.43292 29.9852 4.5666 29.9788 4.70106C29.9725 4.83553 29.9297 4.96575 29.8553 5.07787L23.7748 14.219C23.7068 14.3209 23.6147 14.4044 23.5066 14.4622C23.3986 14.52 23.278 14.5502 23.1554 14.5502C23.0329 14.5502 22.9123 14.52 22.8043 14.4622C22.6962 14.4044 22.6041 14.3209 22.5361 14.219L13.7974 1.0845C13.6155 0.811346 13.369 0.587288 13.0798 0.432168C12.7905 0.277048 12.4675 0.195655 12.1393 0.195206H1.99324C1.63241 0.195175 1.27835 0.293095 0.968818 0.478525C0.659287 0.663954 0.405901 0.929941 0.235691 1.2481C0.0654806 1.56625 -0.0151671 1.92464 0.0023507 2.28504C0.0198684 2.64544 0.134892 2.99432 0.335156 3.29447L16.5304 27.5656C16.708 27.8316 16.9471 28.0509 17.2274 28.2051C17.5076 28.3592 17.8209 28.4437 18.1407 28.4512C18.4605 28.4588 18.7774 28.3893 19.0646 28.2485C19.3519 28.1078 19.6011 27.9 19.7911 27.6427L21.8902 24.5097C22.0959 24.1818 22.2053 23.8026 22.2059 23.4156C22.2024 23.1344 22.1436 22.8567 22.0326 22.5984C21.9217 22.34 21.7609 22.1061 21.5594 21.91C21.3579 21.7139 21.1197 21.5594 20.8585 21.4555C20.5972 21.3516 20.318 21.3003 20.0369 21.3044C19.8086 21.3045 19.5818 21.3403 19.3645 21.4104C19.1533 21.4765 18.954 21.5757 18.7741 21.7045C18.6869 21.7814 18.5951 21.853 18.4993 21.9189C18.4255 21.9617 18.3433 21.988 18.2583 21.9961C18.0875 22.0089 17.9175 21.9629 17.7763 21.8659C17.6943 21.8084 17.6232 21.7366 17.5667 21.6538L6.52163 5.07787C6.44713 4.96575 6.40442 4.83553 6.39804 4.70106C6.39166 4.5666 6.42184 4.43292 6.48538 4.31425C6.54892 4.19557 6.64344 4.09635 6.75889 4.02711C6.87433 3.95788 7.00638 3.92123 7.141 3.92106H10.2909C10.4132 3.92137 10.5336 3.95162 10.6416 4.00917C10.7496 4.06673 10.8418 4.14983 10.9102 4.25124L20.6659 18.8751L21.4998 20.1211C21.6815 20.394 21.9279 20.6178 22.2169 20.7726C22.506 20.9274 22.8288 21.0083 23.1567 21.0083C23.4845 21.0083 23.8073 20.9274 24.0964 20.7726C24.3854 20.6178 24.6318 20.394 24.8135 20.1211L25.645 18.8751C25.645 18.8751 35.6224 3.92106 35.6248 3.92106L36.0441 3.29206C36.2437 2.99194 36.3582 2.6433 36.3754 2.28327C36.3926 1.92323 36.3118 1.56528 36.1417 1.24752C35.9715 0.929759 35.7184 0.664083 35.4093 0.478775C35.1001 0.293467 34.7465 0.195466 34.386 0.195206Z" fill="#005864"/>
<path d="M94.3418 7.17698C94.0122 7.38767 93.6202 7.4787 93.2315 7.43482C92.8428 7.39095 92.4809 7.21484 92.2066 6.93598C91.8037 6.52392 91.3222 6.19686 90.7907 5.97415C90.2592 5.75144 89.6884 5.63761 89.1121 5.6394C88.7517 5.62366 88.3917 5.67945 88.0529 5.80354C87.7142 5.92763 87.4033 6.11757 87.1383 6.3624C86.7602 6.749 86.5476 7.26766 86.5455 7.8084C86.5455 8.5314 86.8756 8.99412 87.4661 9.38936C87.8613 9.65205 88.2566 9.7846 89.6351 10.5076L92.9247 12.1536C94.3707 12.8766 95.7541 13.5996 96.8072 14.7203C98.3231 16.2338 98.8485 17.9449 98.8485 19.8536C98.8696 22.1927 97.9993 24.4521 96.4144 26.1726C94.2454 28.5416 91.5438 29.267 88.647 29.267C86.8708 29.267 84.6319 29.0019 82.6581 27.4885C81.4658 26.5599 80.4897 25.3832 79.7975 24.0397C79.6909 23.8384 79.6262 23.6175 79.6074 23.3905C79.5885 23.1634 79.6158 22.9349 79.6876 22.7187C79.7595 22.5025 79.8744 22.3031 80.0254 22.1325C80.1764 21.9619 80.3604 21.8237 80.5663 21.7262L82.822 20.6561C83.2123 20.4716 83.6585 20.4437 84.0687 20.5782C84.4789 20.7127 84.8219 20.9993 85.0272 21.3791C85.248 21.812 85.5369 22.2066 85.8827 22.548C86.278 22.9432 87.1986 23.6011 88.7121 23.6011C89.7002 23.6011 90.7533 23.271 91.3462 22.6805C91.9113 22.0966 92.2394 21.3236 92.2668 20.5115C92.2719 19.7541 91.9864 19.0235 91.4691 18.4702C91.4305 18.4293 91.392 18.3859 91.351 18.3473C90.575 17.593 89.664 17.1423 88.647 16.6941L86.2779 15.5758C85.0272 14.983 83.5137 14.26 82.4605 13.2068C81.8121 12.6176 81.2996 11.8946 80.9584 11.0877C80.6171 10.2808 80.4554 9.4094 80.4843 8.53381C80.4718 6.34449 81.29 4.23188 82.7738 2.62208C84.0342 1.30622 86.1478 0 89.5628 0C91.539 0 93.1175 0.39524 94.6961 1.446C95.487 1.95778 96.1949 2.58767 96.7952 3.31375C96.9483 3.4962 97.061 3.70899 97.1259 3.93812C97.1908 4.16724 97.2065 4.40752 97.1719 4.64314C97.1373 4.87876 97.0532 5.10439 96.9251 5.30518C96.7971 5.50596 96.6279 5.67737 96.4289 5.8081L94.3418 7.17698Z" fill="#005864"/>
<path d="M144.008 1.83642V26.951C144.008 27.3985 143.83 27.8275 143.514 28.1439C143.197 28.4603 142.768 28.638 142.321 28.638H139.318C138.87 28.638 138.441 28.4603 138.125 28.1439C137.809 27.8275 137.631 27.3985 137.631 26.951V5.22488C137.631 4.97106 137.688 4.72048 137.798 4.49182C137.908 4.26315 138.069 4.0623 138.267 3.9042L142.06 0.891704C142.238 0.752816 142.451 0.666538 142.675 0.642687C142.899 0.618836 143.126 0.658368 143.329 0.756781C143.532 0.855194 143.703 1.00854 143.823 1.1994C143.943 1.39025 144.007 1.61096 144.008 1.83642Z" fill="#005864"/>
<path d="M122.539 7.17698C122.209 7.38767 121.817 7.4787 121.429 7.43482C121.04 7.39095 120.678 7.21484 120.404 6.93598C120.001 6.52392 119.519 6.19686 118.988 5.97415C118.456 5.75144 117.886 5.63761 117.309 5.6394C116.949 5.62366 116.589 5.67945 116.25 5.80354C115.911 5.92763 115.601 6.11757 115.336 6.3624C114.958 6.749 114.745 7.26766 114.743 7.8084C114.743 8.5314 115.073 8.99412 115.663 9.38936C116.059 9.65205 116.454 9.7846 117.832 10.5076L121.122 12.1536C122.568 12.8766 123.951 13.5996 125.005 14.7203C126.52 16.2338 127.046 17.9449 127.046 19.8536C127.067 22.1927 126.197 24.4521 124.612 26.1726C122.443 28.5416 119.741 29.267 116.844 29.267C115.068 29.267 112.829 29.0019 110.855 27.4885C109.663 26.5599 108.687 25.3832 107.995 24.0397C107.888 23.8384 107.824 23.6175 107.805 23.3905C107.786 23.1634 107.813 22.9349 107.885 22.7187C107.957 22.5025 108.072 22.3031 108.223 22.1325C108.374 21.9619 108.558 21.8237 108.764 21.7262L111.019 20.6561C111.41 20.4716 111.856 20.4437 112.266 20.5782C112.676 20.7127 113.019 20.9993 113.224 21.3791C113.445 21.812 113.734 22.2066 114.08 22.548C114.475 22.9432 115.396 23.6011 116.909 23.6011C117.897 23.6011 118.951 23.271 119.543 22.6805C120.109 22.0966 120.437 21.3236 120.464 20.5115C120.469 19.7541 120.184 19.0235 119.666 18.4702C119.628 18.4293 119.589 18.3859 119.548 18.3473C118.772 17.593 117.861 17.1423 116.844 16.6941L114.475 15.5758C113.224 14.983 111.711 14.26 110.658 13.2068C110.009 12.6176 109.497 11.8946 109.156 11.0877C108.814 10.2808 108.653 9.4094 108.682 8.53381C108.669 6.34449 109.487 4.23188 110.971 2.62208C112.232 1.30622 114.345 0 117.76 0C119.736 0 121.315 0.39524 122.893 1.446C123.684 1.95778 124.392 2.58767 124.992 3.31375C125.146 3.4962 125.258 3.70899 125.323 3.93812C125.388 4.16724 125.404 4.40752 125.369 4.64314C125.335 4.87876 125.25 5.10439 125.122 5.30518C124.994 5.50596 124.825 5.67737 124.626 5.8081L122.539 7.17698Z" fill="#005864"/>
<path d="M68.62 21.825C68.717 21.879 68.802 21.9522 68.8699 22.04C68.9377 22.1279 68.987 22.2287 69.0147 22.3362C69.0424 22.4437 69.048 22.5557 69.0311 22.6654C69.0142 22.7752 68.9752 22.8803 68.9164 22.9745C67.8313 24.7058 66.3884 26.1849 64.6845 27.3125C62.4456 28.7585 59.4837 29.4189 56.5218 29.4189C52.8369 29.4189 49.8076 28.4958 47.1758 25.8641C44.5441 23.2324 43.0957 19.4125 43.0957 15.2601C43.0957 10.9824 44.6092 6.82512 47.506 3.87287C49.8076 1.56891 52.8369 0.120495 56.7845 0.120495C61.1948 0.120495 64.0145 2.02921 65.6702 3.7355C68.0958 6.1116 69.4821 9.35129 69.5262 12.7465C69.5262 12.7465 69.7672 16.1205 66.8752 16.1205L50.5763 16.2362C50.4609 16.2359 50.3469 16.2609 50.2422 16.3094C50.1375 16.3579 50.0446 16.4287 49.9702 16.5169C49.8958 16.6051 49.8416 16.7085 49.8114 16.8199C49.7812 16.9313 49.7758 17.0479 49.7955 17.1616C50.0919 18.8799 50.8848 20.6609 52.0537 21.8322C53.5672 23.3457 55.4108 23.6084 56.9894 23.6084C58.7679 23.6084 60.0838 23.2131 61.3997 22.2274C62.2551 21.5579 62.9923 20.7498 63.5807 19.8367C63.6942 19.6665 63.868 19.5458 64.0671 19.4988C64.2661 19.4518 64.4756 19.4821 64.6532 19.5837L68.62 21.825ZM61.9178 10.98C62.0483 10.9797 62.1769 10.9483 62.2929 10.8884C62.4089 10.8285 62.5089 10.7419 62.5848 10.6357C62.6606 10.5294 62.7101 10.4067 62.729 10.2775C62.748 10.1484 62.7359 10.0166 62.6938 9.89304C62.3579 8.87998 61.7787 7.96476 61.0068 7.22758C60.1513 6.4371 58.7703 5.64662 56.6688 5.64662C54.4299 5.64662 52.9815 6.56965 52.126 7.4252C51.4102 8.11555 50.8534 8.95359 50.4944 9.881C50.4462 10.0052 50.429 10.1392 50.4443 10.2715C50.4596 10.4038 50.5069 10.5304 50.5822 10.6403C50.6574 10.7502 50.7583 10.8401 50.8762 10.9023C50.994 10.9644 51.1252 10.9968 51.2584 10.9968L61.9178 10.98Z" fill="#005864"/>
</svg>
